HIERARCHY
ROOT Hips
{
	OFFSET -0.426677 -0.213829 -0.227704
	CHANNELS 6 Xposition Yposition Zposition Zrotation Yrotation Xrotation 
	JOINT LHipJoint
	{
		OFFSET -0.236106 3.742166 2.472238
		CHANNELS 3 Zrotation Yrotation Xrotation
		JOINT LeftUpLeg
		{
			OFFSET -0.179919 0.970091 7.339288
			CHANNELS 3 Zrotation Yrotation Xrotation
			JOINT LeftLeg
			{
				OFFSET 1.347534 4.254656 -0.182846
				CHANNELS 3 Zrotation Yrotation Xrotation
				JOINT LeftFoot
				{
					OFFSET 4.480455 -0.173640 2.905708
					CHANNELS 3 Zrotation Yrotation Xrotation
					JOINT LeftToeBase
					{
						OFFSET -0.191929 -0.199019 -0.185349
						CHANNELS 3 Zrotation Yrotation Xrotation
						End Site
						{
							OFFSET 0.000000 0.000000 0.000000
						}
					}
				}
			}
		}
	}
	JOINT RHipJoint
	{
		OFFSET 0.287971 1.109652 3.357597
		CHANNELS 3 Zrotation Yrotation Xrotation
		JOINT RightUpLeg
		{
			OFFSET 0.216389 1.016094 1.374660
			CHANNELS 3 Zrotation Yrotation Xrotation
			JOINT RightLeg
			{
				OFFSET 2.404608 0.901589 1.195553
				CHANNELS 3 Zrotation Yrotation Xrotation
				JOINT RightFoot
				{
					OFFSET 0.808239 0.971314 1.175132
					CHANNELS 3 Zrotation Yrotation Xrotation
					JOINT RightToeBase
					{
						OFFSET 2.041891 1.389823 2.549493
						CHANNELS 3 Zrotation Yrotation Xrotation
						End Site
						{
							OFFSET 0.000000 0.000000 0.000000
						}
					}
				}
			}
		}
	}
	JOINT LowerBack
	{
		OFFSET 2.498760 2.902126 2.638630
		CHANNELS 3 Zrotation Yrotation Xrotation
		JOINT Spine
		{
			OFFSET 3.654588 3.036476 3.373277
			CHANNELS 3 Zrotation Yrotation Xrotation
			JOINT Spine1
			{
				OFFSET 3.241783 3.648321 2.891022
				CHANNELS 3 Zrotation Yrotation Xrotation
				JOINT Neck
				{
					OFFSET 2.402566 2.143798 1.408870
					CHANNELS 3 Zrotation Yrotation Xrotation
					JOINT Neck1
					{
						OFFSET 2.065729 2.467530 1.984188
						CHANNELS 3 Zrotation Yrotation Xrotation
						JOINT Head
						{
							OFFSET 1.614769 2.938003 2.748944
							CHANNELS 3 Zrotation Yrotation Xrotation
							End Site
							{
								OFFSET 0.000000 0.000000 0.000000
							}
						}
					}
				}
				JOINT LeftShoulder
				{
					OFFSET 2.432605 3.136487 2.500472
					CHANNELS 3 Zrotation Yrotation Xrotation
					JOINT LeftArm
					{
						OFFSET 1.156560 2.220269 3.228707
						CHANNELS 3 Zrotation Yrotation Xrotation
						JOINT LeftForeArm
						{
							OFFSET 1.855188 1.685132 1.934536
							CHANNELS 3 Zrotation Yrotation Xrotation
							JOINT LeftHand
							{
								OFFSET 1.096181 1.208496 1.112904
								CHANNELS 3 Zrotation Yrotation Xrotation
								JOINT LeftFingerBase
								{
									OFFSET 0.371314 0.236803 0.234831
									CHANNELS 3 Zrotation Yrotation Xrotation
									JOINT LeftHandIndex1
									{
										OFFSET 0.492932 0.463022 0.716647
										CHANNELS 3 Zrotation Yrotation Xrotation
										End Site
										{
											OFFSET 0.000000 0.000000 0.000000
										}
									}
								}
								JOINT LThumb
								{
									OFFSET 0.455482 0.314102 0.249362
									CHANNELS 3 Zrotation Yrotation Xrotation
									End Site
									{
										OFFSET 0.000000 0.000000 0.000000
									}
								}
							}
						}
					}
				}
				JOINT RightShoulder
				{
					OFFSET -0.080287 0.337696 0.200109
					CHANNELS 3 Zrotation Yrotation Xrotation
					JOINT RightArm
					{
						OFFSET 0.527262 1.210279 0.588329
						CHANNELS 3 Zrotation Yrotation Xrotation
						JOINT RightForeArm
						{
							OFFSET -0.173327 -0.025199 0.855651
							CHANNELS 3 Zrotation Yrotation Xrotation
							JOINT RightHand
							{
								OFFSET 0.247200 0.517338 0.192361
								CHANNELS 3 Zrotation Yrotation Xrotation
								JOINT RightFingerBase
								{
									OFFSET 0.339106 0.354873 0.803504
									CHANNELS 3 Zrotation Yrotation Xrotation
									JOINT RightHandIndex1
									{
										OFFSET 0.582247 0.516973 0.662354
										CHANNELS 3 Zrotation Yrotation Xrotation
										End Site
										{
											OFFSET 0.000000 0.000000 0.000000
										}
									}
								}
								JOINT RThumb
								{
									OFFSET 0.470168 0.447399 1.691431
									CHANNELS 3 Zrotation Yrotation Xrotation
									End Site
									{
										OFFSET 0.769491 0.539322 0.739022
									}
								}
							}
						}
					}
				}
			}
		}
	}
}
MOTION
Frames: 5
Frame Time: 0.008333
2.571033 17.753372 1.274749 -0.666724 -0.798205 6.757947 -0.232190 1.342605 5.885649 -17.225777 -5.154331 -17.834139 4.938464 9.389864 30.040155 -0.188302 0.854844 6.956595 0.310519 -2.200220 -5.947567 -1.417213 -1.732513 0.421979 19.795599 7.371906 -18.869488 -2.947212 -10.567761 32.466049 0.176371 -3.645773 4.267574 -0.532474 0.922845 -4.139688 -0.093754 0.214088 0.850587 1.704801 0.169251 -2.660885 1.274941 0.162878 -3.074478 -5.689844 -2.781072 -13.292204 3.861968 -2.932581 13.212593 1.156337 -1.390605 7.717941 -1.165471 0.294133 -0.599425 -84.977455 2.736701 19.680666 13.247991 -24.048338 -4.706826 -0.518677 -0.444610 1.745581 19.261436 3.900120 1.428183 -7.125000 0.000000 0.000000 -9.492671 33.885246 -1.488017 1.614837 0.069616 -0.585011 80.844772 -4.907769 10.214624 -15.425388 24.042645 -5.267994 0.611763 -0.131253 3.095970 -21.196459 -2.753809 -2.075860 7.125000 0.000000 0.000000 4.497204 -33.823189 -3.282565
2.499123 17.744907 0.900798 -0.739691 -0.926887 6.639311 -0.371090 1.270119 0.918354 -17.479765 -5.345177 -18.176468 1.686481 9.286532 29.817753 -0.239244 0.646043 6.687926 0.285305 -2.297241 -6.259918 -1.534801 -1.781400 0.354468 19.597059 7.185629 -19.170475 -3.018404 -10.652989 32.183731 0.109990 -3.853402 3.997551 -0.561125 0.817514 -4.491330 -0.169777 0.152722 0.756260 1.666576 0.096661 -2.732390 1.211630 0.118757 -3.162760 -5.763670 -2.839316 -13.371980 3.828081 -3.008068 13.097985 1.093179 -1.442988 7.614068 -1.281042 0.192095 -0.632540 -85.189613 2.346775 19.057108 12.789806 -24.357271 -5.025248 -0.538468 -0.492880 1.051273 18.931377 3.383681 1.051210 -7.125000 0.000000 0.000000 -10.366508 33.051292 -2.628900 1.470662 -0.035634 -0.624310 80.556450 -5.286599 9.401438 -15.831604 23.761412 -5.521285 0.580369 -0.167775 2.561049 -22.843821 -3.503480 -3.673542 7.125000 0.000000 0.000000 2.937840 -34.635117 -4.979564
2.502079 17.771841 1.820007 -0.482965 16.306185 26.193422 0.066817 10.004775 19.061327 16.167185 41.155716 24.740582 21.185423 13.551444 91.138908 -0.059808 1.461957 7.459711 1.031674 -2.031228 23.024029 -1.251613 -1.648324 0.524342 29.236012 7.668858 -18.383375 -2.831046 -10.420579 32.899174 0.294677 -3.291448 4.725930 -0.485002 1.098231 -3.550882 0.037475 0.316853 1.017038 1.773672 0.310393 -2.528079 1.381675 0.245308 -2.880282 -5.508924 -2.626503 -13.086514 3.931104 -2.773729 13.405881 1.261171 -1.342431 7.836077 -1.077111 0.381643 -0.567329 -84.798355 3.077928 20.215162 13.636454 -23.831112 -4.477080 -0.505065 -0.411441 2.226027 19.508179 4.318035 1.741171 -7.125000 0.000000 0.000000 -8.763606 34.601055 -0.573688 1.718297 0.143161 -0.557070 81.011795 -4.684367 10.801825 -15.136911 24.267792 -5.087927 0.639332 -0.102722 3.553783 -19.853142 -2.129073 -0.707573 7.125000 0.000000 0.000000 5.873743 -33.165634 -1.850314
2.381910 17.756416 1.195556 -0.635678 -0.799857 6.798544 -0.303821 1.364598 9.844842 -17.247089 7.277444 -17.863205 11.764566 9.423649 57.155182 -0.136637 1.378364 7.471611 1.476040 -2.021359 35.405621 -1.209088 -0.817660 0.556661 46.479927 11.396904 -8.032692 -1.077336 -5.205522 43.840328 6.460598 3.074112 17.477859 0.449743 5.869388 7.968317 5.977207 3.245734 7.443861 4.446424 7.975966 2.346468 3.411316 2.511780 3.457184 2.654132 5.379233 -6.209608 4.330288 4.332444 18.687532 4.707222 -1.123966 13.292576 -0.943695 3.574808 1.881048 -80.114929 12.662514 45.577408 27.573280 -16.992805 3.544286 -0.181939 0.645411 20.855610 31.745457 23.875931 17.884428 -7.125000 0.000000 0.000000 9.220654 66.157578 31.916941 5.348322 4.611436 0.809832 81.355873 -1.327318 47.867271 -5.168839 35.846954 0.198266 2.187551 1.127169 30.991545 44.787674 28.323637 79.587967 7.125000 0.000000 0.000000 86.532883 -3.848175 49.358852
2.310629 17.759680 1.211833 -0.613377 -0.775250 6.947484 -0.210378 1.443104 15.799739 -17.037374 27.213877 -17.600294 18.553335 9.482739 80.456184 -0.130102 1.512652 7.366946 0.660598 -2.081214 28.389526 -1.284409 -1.652717 0.494750 34.701141 7.632374 -18.427248 -2.841573 -10.409362 32.876804 0.294786 -3.274853 4.706760 -0.490344 1.072291 -3.633316 0.027481 0.306227 1.000550 1.765960 0.304137 -2.542270 1.364501 0.231550 -2.908130 -5.527953 -2.643744 -13.114922 3.913575 -2.793564 13.357222 1.226258 -1.383422 7.817674 -1.106126 0.367749 -0.567176 -84.849060 3.008926 20.166117 13.636144 -23.867035 -4.501660 -0.506926 -0.413882 2.184721 19.488600 4.277979 1.693767 -7.125000 0.000000 0.000000 -8.929412 34.473217 -0.768778 1.686411 0.130112 -0.561440 80.972000 -4.748784 10.738645 -15.198808 24.233515 -5.120091 0.640532 -0.106791 3.492476 -20.065102 -2.211679 -0.829791 7.125000 0.000000 0.000000 5.714442 -33.276199 -2.015216
